#tb 0: 1/25
0,          3,          3,        1,   518400, 0x0fbb4e71
0,          5,          5,        1,   518400, 0xc46bec04
0,          7,          7,        1,   518400, 0xc50ffc1d
0,          9,          9,        1,   518400, 0x684b07b7
0,         11,         11,        1,   518400, 0xde799af0
0,         13,         13,        1,   518400, 0xed497b27
0,         15,         15,        1,   518400, 0x3e9d1e3a
0,         17,         17,        1,   518400, 0x154d3c5c
0,         19,         19,        1,   518400, 0x5257e37c
0,         21,         21,        1,   518400, 0x6e15139a
0,         23,         23,        1,   518400, 0x5dc39c59
0,         25,         25,        1,   518400, 0xe1803100
0,         27,         27,        1,   518400, 0xb4d4d535
0,         29,         29,        1,   518400, 0x7a97a25d
0,         31,         31,        1,   518400, 0xf86b8923
0,         32,         32,        1,   518400, 0x3355be98
0,         33,         33,        1,   518400, 0x8f555830
